{"title":"What Keeps You Alive 2018 1080p WEB-DL DD 5.1 x264 [MW]","magnet":"magnet:?xt=urn:btih:5e771a1d875ca7abef0a3837a65bcef33bd0ee71&dn=What+Keeps+You+Alive+2018+1080p+WEB-DL+DD+5.1+x264+%5BMW%5D&tr=udp%3A%2F%2Ftracker.leechers-paradise.org%3A6969&tr=udp%3A%2F%2Fzer0day.ch%3A1337&tr=udp%3A%2F%2Fopen.demonii.com%3A1337&tr=udp%3A%2F%2Ftracker.coppersurfer.tk%3A6969&tr=udp%3A%2F%2Fexodus.desync.com%3A6969","uploader":"MFreaky","categoryP":"video","categoryS":"hd___movies","size":"2208721968","seeders":"0","leechers":"0","description":" <a href=\"https://pichub.site/image/S6Gr8\" rel=\"nofollow\" target=\"_NEW\">https://pichub.site/image/S6Gr8</a> <a href=\"\nhttps://pichub.site/image/S6v75\" rel=\"nofollow\" target=\"_NEW\">\nhttps://pichub.site/image/S6v75</a> <a href=\"\nhttps://pichub.site/image/S6xNh\" rel=\"nofollow\" target=\"_NEW\">\nhttps://pichub.site/image/S6xNh</a> <a href=\"\nhttps://pichub.site/image/S6rOr\" rel=\"nofollow\" target=\"_NEW\">\nhttps://pichub.site/image/S6rOr</a> <a href=\"\nhttps://pichub.site/image/S60Zj\" rel=\"nofollow\" target=\"_NEW\">\nhttps://pichub.site/image/S60Zj</a> <a href=\"\nhttps://pichub.site/image/S6oBk\" rel=\"nofollow\" target=\"_NEW\">\nhttps://pichub.site/image/S6oBk</a>\r\n\r\nIMDB <a href=\"\nhttps://www.imdb.com/title/tt7073710/\" rel=\"nofollow\" target=\"_NEW\">\nhttps://www.imdb.com/title/tt7073710/</a>\r\n\r\nVideo\r\nID                                       : 1\r\nFormat                                   : AVC\r\nFormat/Info                              : Advanced Video Codec\r\nFormat profile                           : High@L4.1\r\nFormat settings                          : CABAC / 4 Ref Frames\r\nFormat settings, CABAC                   : Yes\r\nFormat settings, RefFrames               : 4 frames\r\nCodec ID                                 : V_MPEG4/ISO/AVC\r\nDuration                                 : 1 h 39 min\r\nBit rate                                 : 2 600 kb/s\r\nWidth                                    : 1 920 pixels\r\nHeight                                   : 804 pixels\r\nDisplay aspect ratio                     : 2.40:1\r\nFrame rate mode                          : Constant\r\nFrame rate                               : 23.976 (24000/1001) FPS\r\nColor space                              : YUV\r\nChroma subsampling                       : 4:2:0\r\nBit depth                                : 8 bits\r\nScan type                                : Progressive\r\nBits/(Pixel*Frame)                       : 0.070\r\nStream size                              : 1.79 GiB (87%)\r\nWriting library                          : x264 core 155 r2901 7d0ff22\r\nDefault                                  : Yes\r\nForced                                   : No\r\n\r\nAudio\r\nID                                       : 3\r\nFormat                                   : AC-3\r\nFormat/Info                              : Audio Coding 3\r\nCodec ID                                 : A_AC3\r\nDuration                                 : 1 h 39 min\r\nBit rate mode                            : Constant\r\nBit rate                                 : 384 kb/s\r\nChannel(s)                               : 6 channels\r\nChannel positions                        : Front: L C R, Side: L R, LFE\r\nSampling rate                            : 48.0 kHz\r\nFrame rate                               : 31.250 FPS (1536 SPF)\r\nBit depth                                : 16 bits\r\nCompression mode                         : Lossy\r\nStream size                              : 273 MiB (13%)\r\nLanguage                                 : English\r\nService kind                             : Complete Main\r\nDefault                                  : Yes\r\nForced                                   : No","last_updated":"2018-08-26T12:01:42.242Z","parsed":{"xt":"urn:btih:5e771a1d875ca7abef0a3837a65bcef33bd0ee71","dn":"What Keeps You Alive 2018 1080p WEB-DL DD 5.1 x264 [MW]","tr":["udp://exodus.desync.com:6969","udp://open.demonii.com:1337","udp://tracker.coppersurfer.tk:6969","udp://tracker.leechers-paradise.org:6969","udp://zer0day.ch:1337"],"infoHash":"5e771a1d875ca7abef0a3837a65bcef33bd0ee71","infoHashBuffer":{"type":"Buffer","data":[94,119,26,29,135,92,167,171,239,10,56,55,166,91,206,243,59,208,238,113]},"name":"What Keeps You Alive 2018 1080p WEB-DL DD 5.1 x264 [MW]","announce":["udp://exodus.desync.com:6969","udp://open.demonii.com:1337","udp://tracker.coppersurfer.tk:6969","udp://tracker.leechers-paradise.org:6969","udp://zer0day.ch:1337"],"urlList":[]}}